# xmcd
#
# Track frame offsets:
#	150
#	40382
#	75908
#	109417
#	159082
#
# Disc length: 2360 seconds
# Revision: 0
# Processed by: cddbd v1.5.2PL0 Copyright (c) Steve Scherf et al.
# Submitted via: dBpowerAMP V12.0
#
DISCID=2e093605
DTITLE=Buddy Elias - Tagebuch CD9
DYEAR=1900
DGENRE=
TTITLE0=197
TTITLE1=198
TTITLE2=199
TTITLE3=200
TTITLE4=201
EXTD=
EXTT0=
EXTT1=
EXTT2=
EXTT3=
EXTT4=
PLAYORDER=
